# xmcd CD database file generated by LOLA_Freedb v0.9beta0
# 
# Track frame offsets:
#      150
#      15980
#      32454
#      49296
#      67377
# 
# Disc length: 1087 seconds
# 
# Revision: 1 
# Processed by: cddbd v1.5.2PL0 Copyright (c) Steve Scherf et al.
# Submitted via: LOLA_Freedb v0.9beta0
# 
DISCID=3c043d05
DTITLE=Monrose - Hot Summer
DYEAR=2007
DGENRE=Dance
TTITLE0=Monrose - Hot Summer (Radio Edit)
TTITLE1=Monrose - Hot Summer (Taj Jason Rex)
TTITLE2=Hot Summer (Beathoavenz Club Mix)
TTITLE3=Hot Summer (Mozart and Friends Pfm House Mix)
TTITLE4=Scream (Album Version)
EXTD=
EXTT0=
EXTT1=
EXTT2=
EXTT3=
EXTT4=
PLAYORDER=
